<?xml version="1.0" standalone="no"?>
<!DOCTYPE svg PUBLIC "-//W3C//DTD SVG 20010904//EN"
 "http://www.w3.org/TR/2001/REC-SVG-20010904/DTD/svg10.dtd">
<svg version="1.0" xmlns="http://www.w3.org/2000/svg"
 width="777.000000pt" height="382.000000pt" viewBox="0 0 777.000000 382.000000"
 preserveAspectRatio="xMidYMid meet">

<g transform="translate(0.000000,382.000000) scale(0.100000,-0.100000)"
fill="#000000" stroke="none">
<path d="M40 3740 c-18 -18 -20 -33 -20 -175 0 -142 2 -157 20 -175 20 -20 33
-20 855 -20 822 0 835 0 855 20 18 18 20 33 20 175 0 142 -2 157 -20 175 -20
20 -33 20 -855 20 -822 0 -835 0 -855 -20z m160 -135 c0 -20 5 -25 25 -25 20
0 25 5 25 25 0 14 5 25 10 25 6 0 10 -25 10 -55 0 -30 -4 -55 -10 -55 -5 0
-10 11 -10 25 0 20 -5 25 -25 25 -20 0 -25 -5 -25 -25 0 -14 -4 -25 -10 -25
-5 0 -10 25 -10 55 0 30 5 55 10 55 6 0 10 -11 10 -25z m155 -45 c0 -29 -4
-36 -23 -38 -43 -6 -69 37 -40 66 7 7 24 12 38 10 21 -3 25 -8 25 -38z m35 25
c0 -8 5 -15 10 -15 6 0 10 7 10 15 0 8 7 15 16 15 11 0 14 -6 8 -22 -17 -58
-34 -88 -50 -88 -13 0 -14 3 -5 14 8 10 7 24 -4 55 -12 36 -12 41 0 41 8 0 15
-7 15 -15z"/>
<path d="M310 3560 c0 -21 4 -30 13 -27 6 2 12 14 12 27 0 13 -6 25 -12 28 -9
2 -13 -7 -13 -28z"/>
<path d="M2068 3506 l-37 -33 38 -37 c21 -21 41 -34 44 -28 4 5 -7 22 -23 37
l-30 29 27 28 c38 40 25 42 -19 4z"/>
<path d="M7360 3533 c0 -4 12 -20 27 -35 l27 -28 -29 -30 c-38 -39 -20 -38 24
1 l33 31 -33 34 c-31 32 -49 42 -49 27z"/>
<path d="M2440 3475 l0 -55 43 2 42 1 -37 4 c-29 3 -38 9 -38 23 0 14 9 20 33
23 l32 4 -32 1 c-25 2 -33 7 -33 21 0 15 8 21 33 24 31 4 31 4 -5 5 l-38 2 0
-55z"/>
<path d="M3575 3520 c-4 -6 -4 -14 -1 -17 3 -4 6 -1 6 5 0 18 30 14 37 -4 3
-9 -7 -28 -28 -50 l-33 -34 40 1 c31 2 33 3 11 6 l-28 4 26 25 c32 29 31 67
-2 72 -11 2 -24 -2 -28 -8z"/>
<path d="M3656 3514 c-9 -22 -7 -67 3 -82 26 -42 75 25 53 73 -13 28 -47 34
-56 9z m39 -40 c0 -28 -4 -39 -15 -39 -16 0 -26 45 -16 72 11 28 31 7 31 -33z"/>
<path d="M3737 3524 c-4 -4 -7 -12 -7 -18 0 -6 5 -5 12 2 7 7 18 12 25 12 22
0 15 -35 -12 -60 -34 -32 -31 -40 13 -39 31 2 33 3 8 6 l-28 5 28 29 c23 24
26 33 18 47 -12 18 -45 28 -57 16z"/>
<path d="M3819 3503 c-22 -58 33 -115 61 -63 14 26 -4 54 -32 47 -11 -3 -18 0
-18 8 0 21 19 28 37 13 14 -11 16 -11 11 2 -2 8 -14 16 -26 18 -16 3 -25 -4
-33 -25z m48 -39 c8 -21 -13 -42 -28 -27 -13 13 -5 43 11 43 6 0 13 -7 17 -16z"/>
<path d="M5341 3473 c1 -32 4 -46 6 -31 3 22 10 28 36 31 l32 4 -32 1 c-25 2
-33 7 -33 21 0 15 8 21 33 24 31 4 31 4 -5 5 l-38 2 1 -57z"/>
<path d="M5510 3474 l0 -55 33 3 c29 3 32 6 32 38 0 29 -4 36 -22 38 -13 2
-23 10 -23 18 0 8 -4 14 -10 14 -5 0 -10 -25 -10 -56z m55 -14 c0 -16 -6 -26
-17 -28 -14 -3 -18 3 -18 28 0 25 4 31 18 28 11 -2 17 -12 17 -28z"/>
<path d="M6477 3524 c-4 -4 -7 -12 -7 -18 0 -6 5 -5 12 2 7 7 18 12 25 12 22
0 15 -35 -12 -60 -34 -32 -31 -40 13 -39 31 2 33 3 8 6 l-28 5 28 29 c23 24
26 33 18 47 -12 18 -45 28 -57 16z"/>
<path d="M6558 3505 c-22 -48 27 -115 53 -73 10 15 12 60 3 82 -9 25 -43 19
-56 -9z m47 -31 c0 -28 -4 -39 -15 -39 -16 0 -26 45 -16 72 11 28 31 7 31 -33z"/>
<path d="M6645 3520 c-4 -6 -4 -14 -1 -17 3 -4 6 -1 6 5 0 18 30 14 37 -4 3
-9 -7 -28 -28 -50 l-33 -34 40 1 c31 2 33 3 11 6 l-28 4 26 25 c32 29 31 67
-2 72 -11 2 -24 -2 -28 -8z"/>
<path d="M6732 3518 c-17 -17 -15 -73 3 -88 25 -20 50 -8 50 25 0 26 -4 30
-28 30 -19 -1 -26 3 -22 13 3 7 5 16 5 18 0 2 7 4 15 4 8 0 15 -4 15 -10 0 -5
4 -10 10 -10 5 0 7 7 4 15 -7 18 -35 20 -52 3z m46 -61 c4 -20 -25 -34 -40
-19 -15 15 -1 44 19 40 10 -2 19 -11 21 -21z"/>
<path d="M2530 3461 c0 -23 5 -41 10 -41 6 0 10 16 10 35 0 24 5 35 15 35 10
0 15 -11 15 -35 0 -19 5 -35 11 -35 6 0 9 16 7 38 -3 34 -6 37 -35 40 -32 3
-33 2 -33 -37z"/>
<path d="M2622 3488 c-15 -15 -15 -41 0 -56 14 -14 44 -16 52 -3 3 4 -6 6 -19
3 -18 -3 -25 0 -25 12 0 11 9 16 26 16 19 0 25 5 22 18 -4 21 -39 27 -56 10z
m43 -8 c3 -5 -3 -10 -14 -10 -12 0 -21 5 -21 10 0 6 6 10 14 10 8 0 18 -4 21
-10z"/>
<path d="M2701 3455 l1 -40 8 34 c4 18 14 37 21 42 10 6 7 8 -9 6 -19 -1 -22
-7 -21 -42z"/>
<path d="M2754 3486 c-12 -31 0 -61 25 -61 31 0 50 28 35 53 -14 22 -52 28
-60 8z m49 -8 c6 -21 -4 -48 -19 -48 -18 0 -28 24 -20 45 7 18 33 20 39 3z"/>
<path d="M3240 3492 c0 -5 11 -19 25 -32 l26 -24 26 27 c30 30 24 50 -7 22
-19 -17 -21 -17 -38 -2 -20 19 -32 22 -32 9z"/>
<path d="M4070 3492 c0 -5 11 -19 25 -32 l26 -24 26 27 c30 30 24 50 -7 22
-19 -17 -21 -17 -38 -2 -20 19 -32 22 -32 9z"/>
<path d="M5434 3486 c-11 -30 1 -61 25 -64 13 -2 28 1 34 7 7 7 2 10 -18 8
-15 -1 -30 4 -32 11 -3 8 6 12 26 12 33 0 39 8 19 28 -16 16 -47 15 -54 -2z
m46 -6 c0 -5 -9 -10 -21 -10 -11 0 -17 5 -14 10 3 6 13 10 21 10 8 0 14 -4 14
-10z"/>
<path d="M5602 3458 l1 -43 4 37 c3 24 10 38 21 41 12 3 11 5 -5 6 -21 1 -23
-3 -21 -41z"/>
<path d="M5652 3488 c-15 -15 -15 -41 0 -56 14 -14 44 -16 52 -3 3 4 -6 6 -19
3 -18 -3 -25 0 -25 12 0 11 9 16 26 16 19 0 25 5 22 18 -4 21 -39 27 -56 10z
m43 -8 c3 -5 -3 -10 -14 -10 -12 0 -21 5 -21 10 0 6 6 10 14 10 8 0 18 -4 21
-10z"/>
<path d="M5731 3455 l1 -40 8 34 c4 18 14 37 21 42 10 6 7 8 -9 6 -19 -1 -22
-7 -21 -42z"/>
<path d="M5784 3486 c-12 -31 0 -61 25 -61 31 0 50 28 35 53 -14 22 -52 28
-60 8z m49 -8 c6 -21 -4 -48 -19 -48 -18 0 -28 24 -20 45 7 18 33 20 39 3z"/>
<path d="M6140 3492 c0 -5 11 -19 25 -32 l26 -24 26 27 c30 30 24 50 -7 22
-19 -17 -21 -17 -38 -2 -20 19 -32 22 -32 9z"/>
<path d="M6970 3492 c0 -5 11 -19 25 -32 l26 -24 26 27 c30 30 24 50 -7 22
-19 -17 -21 -17 -38 -2 -20 19 -32 22 -32 9z"/>
<path d="M210 3208 c0 -1 -9 -27 -20 -55 -11 -29 -15 -53 -10 -53 6 0 10 7 10
15 0 10 10 15 30 15 20 0 30 -5 30 -15 0 -8 5 -15 10 -15 13 0 13 -4 -9 55
-10 27 -24 51 -30 53 -6 2 -11 2 -11 0z m24 -44 c9 -23 8 -24 -14 -24 -11 0
-20 2 -20 4 0 12 13 36 20 36 4 0 11 -7 14 -16z"/>
<path d="M285 3139 c12 -34 13 -45 3 -57 -11 -12 -10 -14 1 -11 15 5 55 109
42 109 -5 0 -12 -15 -18 -32 l-10 -33 -7 33 c-4 17 -12 32 -16 32 -5 0 -3 -19
5 -41z"/>
<path d="M362 3168 c-25 -25 -7 -68 29 -68 10 0 21 5 24 10 4 7 -2 9 -18 5
-17 -5 -26 -2 -30 9 -5 12 0 16 24 16 24 0 30 4 27 18 -4 21 -39 27 -56 10z
m43 -8 c4 -6 -5 -10 -20 -10 -15 0 -24 4 -20 10 3 6 12 10 20 10 8 0 17 -4 20
-10z"/>
<path d="M442 3138 l1 -43 4 37 c3 24 10 38 21 41 12 3 11 5 -5 6 -21 1 -23
-3 -21 -41z"/>
<path d="M2030 3130 l0 -50 35 0 c19 0 35 5 35 10 0 6 -11 10 -25 10 -22 0
-25 4 -25 40 0 22 -4 40 -10 40 -5 0 -10 -22 -10 -50z"/>
<path d="M2430 3130 c0 -51 19 -72 21 -22 1 27 1 27 8 3 10 -36 27 -36 38 1
l11 33 1 -32 c2 -54 21 -37 21 17 0 60 -24 70 -42 18 l-12 -33 -8 33 c-14 52
-38 41 -38 -18z"/>
<path d="M2830 3130 c0 -54 19 -71 21 -17 l1 32 9 -32 c5 -18 14 -33 19 -33 5
0 14 15 19 33 l9 32 1 -32 c2 -54 21 -37 21 18 0 43 -3 50 -17 47 -10 -2 -19
-13 -21 -26 -4 -29 -18 -28 -26 3 -4 14 -13 25 -21 25 -11 0 -15 -13 -15 -50z"/>
<path d="M3250 3140 c0 -38 -13 -54 -23 -27 -2 6 -8 9 -12 5 -15 -14 5 -39 27
-36 20 3 23 10 26 51 2 28 -1 47 -7 47 -6 0 -11 -18 -11 -40z"/>
<path d="M3610 3177 c0 -21 35 -97 43 -94 6 2 17 22 26 45 8 23 22 43 30 45
10 3 7 5 -7 6 -17 1 -27 -8 -37 -31 l-14 -33 -11 33 c-7 17 -16 32 -21 32 -5
0 -9 -1 -9 -3z"/>
<path d="M3997 3174 c-16 -16 -6 -45 18 -54 33 -13 32 -24 -1 -16 -19 5 -25 3
-22 -6 7 -19 43 -21 58 -3 10 12 10 18 0 30 -7 8 -19 15 -26 15 -8 0 -14 5
-14 11 0 6 9 8 21 4 15 -5 20 -3 17 6 -5 15 -40 24 -51 13z"/>
<path d="M4360 3130 c0 -48 1 -50 28 -50 35 0 52 16 52 50 0 34 -17 50 -52 50
-27 0 -28 -2 -28 -50z m55 0 c0 -16 -6 -26 -17 -28 -14 -3 -18 3 -18 28 0 25
4 31 18 28 11 -2 17 -12 17 -28z"/>
<path d="M4960 3130 l0 -50 35 0 c19 0 35 5 35 10 0 6 -11 10 -25 10 -22 0
-25 4 -25 40 0 22 -4 40 -10 40 -5 0 -10 -22 -10 -50z"/>
<path d="M5330 3130 c0 -54 19 -71 21 -17 l1 32 11 -33 c11 -37 28 -37 38 -1
7 24 7 24 8 -3 2 -50 21 -29 21 22 0 59 -24 70 -39 18 l-9 -33 -7 33 c-5 22
-13 32 -26 32 -16 0 -19 -8 -19 -50z"/>
<path d="M5730 3130 c0 -56 17 -68 23 -17 l3 32 8 -32 c10 -38 23 -42 36 -10
l9 22 0 -22 c2 -47 21 -21 21 27 0 59 -21 69 -37 18 l-10 -33 -7 33 c-5 22
-13 32 -27 32 -16 0 -19 -7 -19 -50z"/>
<path d="M6160 3140 c0 -28 -4 -40 -14 -40 -8 0 -16 6 -19 13 -2 6 -8 9 -13 4
-4 -4 0 -15 9 -25 26 -26 51 -5 55 47 2 24 -1 41 -7 41 -6 0 -11 -18 -11 -40z"/>
<path d="M6528 3133 c9 -25 22 -48 28 -50 7 -2 19 17 28 43 19 56 19 54 7 54
-5 0 -14 -15 -21 -32 l-12 -33 -14 33 c-22 50 -36 38 -16 -15z"/>
<path d="M6896 3164 c-7 -19 10 -44 30 -44 8 0 14 -5 14 -11 0 -7 -10 -9 -26
-5 -19 5 -25 3 -22 -6 3 -7 18 -13 34 -13 40 0 48 40 10 55 -34 13 -33 24 1
15 23 -5 25 -4 14 9 -17 21 -47 20 -55 0z"/>
<path d="M7290 3130 c0 -48 1 -50 28 -50 35 0 52 16 52 50 0 34 -17 50 -52 50
-27 0 -28 -2 -28 -50z m55 0 c0 -16 -6 -26 -17 -28 -14 -3 -18 3 -18 28 0 25
4 31 18 28 11 -2 17 -12 17 -28z"/>
<path d="M2110 3133 c0 -39 11 -51 43 -51 25 0 27 4 27 39 0 22 -4 39 -10 39
-5 0 -10 -14 -10 -31 0 -38 -24 -35 -28 4 -4 35 -22 35 -22 0z"/>
<path d="M2545 3151 c-3 -7 3 -11 17 -12 l23 0 -23 -11 c-32 -16 -24 -43 14
-45 30 -1 30 0 25 35 -5 28 -12 38 -28 40 -11 2 -24 -2 -28 -7z m35 -41 c0 -5
-4 -10 -10 -10 -5 0 -10 5 -10 10 0 6 5 10 10 10 6 0 10 -4 10 -10z"/>
<path d="M2950 3120 c0 -22 5 -40 10 -40 6 0 10 18 10 40 0 22 -4 40 -10 40
-5 0 -10 -18 -10 -40z"/>
<path d="M3292 3123 c3 -34 6 -38 31 -39 25 -1 27 1 26 40 l-1 41 -9 -32 c-12
-41 -29 -43 -29 -3 0 17 -5 30 -11 30 -6 0 -9 -16 -7 -37z"/>
<path d="M3700 3120 c0 -22 5 -40 10 -40 6 0 10 18 10 40 0 22 -4 40 -10 40
-5 0 -10 -18 -10 -40z"/>
<path d="M4075 3151 c-3 -7 3 -11 17 -12 l23 0 -22 -11 c-35 -17 -30 -47 8
-46 28 1 30 3 27 37 -2 28 -8 37 -25 39 -11 2 -24 -2 -28 -7z m35 -41 c0 -5
-4 -10 -10 -10 -5 0 -10 5 -10 10 0 6 5 10 10 10 6 0 10 -4 10 -10z"/>
<path d="M4462 3148 c-25 -25 -6 -68 30 -68 9 0 22 9 28 20 22 40 -26 80 -58
48z m44 -19 c10 -17 -13 -36 -27 -22 -12 12 -4 33 11 33 5 0 12 -5 16 -11z"/>
<path d="M5040 3133 c0 -39 11 -51 43 -51 25 0 27 4 27 39 0 22 -4 39 -10 39
-5 0 -10 -14 -10 -31 0 -38 -24 -35 -28 4 -4 35 -22 35 -22 0z"/>
<path d="M5455 3151 c-3 -7 3 -11 17 -11 22 -1 22 -2 -5 -16 -36 -19 -30 -39
12 -41 31 -1 32 0 29 35 -2 29 -8 38 -25 40 -11 2 -24 -2 -28 -7z m35 -41 c0
-5 -7 -10 -16 -10 -8 0 -12 5 -9 10 3 6 10 10 16 10 5 0 9 -4 9 -10z"/>
<path d="M5850 3120 c0 -22 5 -40 10 -40 6 0 10 18 10 40 0 22 -4 40 -10 40
-5 0 -10 -18 -10 -40z"/>
<path d="M6190 3133 c0 -39 11 -51 43 -51 25 0 27 4 27 39 0 22 -4 39 -10 39
-5 0 -10 -14 -10 -31 0 -38 -24 -35 -28 4 -4 35 -22 35 -22 0z"/>
<path d="M6610 3120 c0 -22 5 -40 10 -40 6 0 10 18 10 40 0 22 -4 40 -10 40
-5 0 -10 -18 -10 -40z"/>
<path d="M6975 3150 c-3 -5 2 -10 12 -10 12 0 19 -8 20 -20 1 -11 -2 -20 -8
-20 -5 0 -9 5 -9 10 0 6 -5 10 -11 10 -6 0 -9 -8 -7 -17 2 -12 13 -19 33 -20
29 -1 30 0 27 38 -4 33 -8 39 -27 39 -13 0 -27 -4 -30 -10z"/>
<path d="M7392 3148 c-25 -25 -6 -68 30 -68 9 0 22 9 28 20 22 40 -26 80 -58
48z m44 -19 c10 -17 -13 -36 -27 -22 -12 12 -4 33 11 33 5 0 12 -5 16 -11z"/>
<path d="M3276 2855 c-17 -13 -17 -15 -4 -15 12 0 18 -11 21 -37 3 -31 4 -29
5 15 1 28 1 52 0 52 -2 0 -12 -7 -22 -15z"/>
<path d="M3647 2863 c-14 -13 -6 -25 8 -13 12 10 19 10 27 2 9 -9 5 -19 -15
-40 -35 -36 -34 -42 6 -41 23 1 26 3 10 6 l-23 4 22 29 c11 16 18 36 15 44 -6
16 -38 22 -50 9z"/>
<path d="M4036 2861 c-4 -5 3 -7 14 -4 23 6 26 13 6 13 -8 0 -17 -4 -20 -9z"/>
<path d="M4450 2865 c-1 -5 -1 -22 0 -37 1 -23 -3 -28 -22 -29 -20 -1 -21 -2
-3 -6 11 -3 23 -10 26 -15 11 -17 15 15 8 57 -3 22 -7 36 -9 30z"/>
<path d="M7373 2815 c0 -27 2 -38 4 -22 2 15 2 37 0 50 -2 12 -4 0 -4 -28z"/>
<path d="M215 2820 c-3 -5 -2 -10 4 -10 5 0 13 5 16 10 3 6 2 10 -4 10 -5 0
-13 -4 -16 -10z"/>
<path d="M4050 2826 c0 -2 7 -7 16 -10 8 -3 12 -2 9 4 -6 10 -25 14 -25 6z"/>
<path d="M180 2764 c0 -48 16 -74 45 -74 29 0 45 26 45 74 0 53 -18 43 -22
-11 -3 -40 -6 -48 -23 -48 -17 0 -20 8 -23 48 -4 54 -22 64 -22 11z"/>
<path d="M293 2745 c0 -33 2 -45 4 -27 2 18 2 45 0 60 -2 15 -4 0 -4 -33z"/>
<path d="M742 2793 c26 -4 26 -5 12 -38 -8 -19 -14 -42 -13 -52 0 -10 7 0 15
22 8 22 19 44 24 49 19 19 10 26 -27 25 -29 -2 -32 -3 -11 -6z"/>
<path d="M900 2781 c0 -14 -5 -18 -19 -14 -13 3 -23 -2 -30 -16 -16 -30 2 -61
34 -59 23 2 25 6 25 55 0 29 -2 53 -5 53 -3 0 -5 -9 -5 -19z m-5 -51 c0 -13
-6 -25 -12 -27 -16 -6 -27 21 -19 43 9 23 31 11 31 -16z"/>
<path d="M935 2790 c-3 -5 -2 -10 4 -10 5 0 13 5 16 10 3 6 2 10 -4 10 -5 0
-13 -4 -16 -10z"/>
<path d="M328 2780 c-5 -17 3 -90 11 -90 3 0 5 21 4 46 -1 46 -8 65 -15 44z"/>
<path d="M4037 2778 c2 -5 10 -8 18 -8 8 0 16 3 18 8 3 4 -5 7 -18 7 -13 0
-21 -3 -18 -7z"/>
<path d="M360 2730 c0 -22 5 -40 10 -40 6 0 10 18 10 40 0 22 -4 40 -10 40 -5
0 -10 -18 -10 -40z"/>
<path d="M401 2725 l2 -40 6 35 c4 22 12 35 21 35 9 0 17 -13 21 -35 l6 -35 2
38 c1 25 6 37 15 37 10 0 16 -13 19 -37 l4 -38 1 42 2 42 -50 -2 -50 -1 1 -41z"/>
<path d="M532 2758 c-27 -27 -3 -73 35 -66 27 5 25 72 -2 76 -11 1 -26 -3 -33
-10z m43 -28 c0 -15 -6 -26 -16 -28 -19 -3 -31 21 -22 43 9 25 38 13 38 -15z"/>
<path d="M607 2763 c-13 -12 -7 -23 18 -35 33 -15 32 -32 -1 -24 -17 5 -23 3
-19 -4 9 -15 41 -12 55 5 10 12 7 17 -14 26 -31 14 -35 34 -6 26 11 -3 18 -1
14 4 -6 10 -38 12 -47 2z"/>
<path d="M930 2730 c0 -22 5 -40 10 -40 6 0 10 18 10 40 0 22 -4 40 -10 40 -5
0 -10 -18 -10 -40z"/>
<path d="M975 2760 c-4 -7 2 -9 19 -4 16 4 26 2 26 -5 0 -6 -11 -13 -26 -17
-37 -10 -27 -39 14 -40 32 -1 33 0 30 35 -3 31 -7 36 -30 39 -14 2 -29 -2 -33
-8z m45 -39 c0 -14 -18 -23 -31 -15 -8 4 -7 9 2 15 18 11 29 11 29 0z"/>
<path d="M1057 2763 c-13 -12 -7 -23 18 -35 33 -15 32 -32 -1 -24 -17 5 -23 3
-19 -4 9 -15 41 -12 55 5 10 12 7 17 -14 26 -31 14 -35 34 -6 26 11 -3 18 -1
14 4 -6 10 -38 12 -47 2z"/>
<path d="M2726 2644 c-13 -12 -16 -40 -16 -139 0 -99 3 -127 16 -139 13 -13
43 -16 174 -16 131 0 161 3 174 16 13 12 16 40 16 139 0 99 -3 127 -16 139
-13 13 -43 16 -174 16 -131 0 -161 -3 -174 -16z m199 -114 c-8 -16 -15 -38
-15 -50 0 -13 -7 -20 -19 -20 -17 0 -18 4 -11 30 5 16 11 34 15 40 3 5 -3 10
-14 10 -12 0 -21 5 -21 10 0 6 18 10 40 10 l41 0 -16 -30z"/>
<path d="M2080 2535 c0 -18 4 -23 16 -18 18 7 35 -14 27 -34 -6 -15 -33 -18
-33 -3 0 6 -5 10 -12 10 -8 0 -6 -7 5 -17 13 -14 21 -15 35 -7 24 16 21 47 -5
59 -13 5 -23 13 -23 17 0 3 10 9 23 11 19 4 18 4 -5 6 -23 1 -28 -3 -28 -24z"/>
<path d="M2491 2546 c-17 -20 -10 -67 11 -80 14 -8 22 -7 34 6 15 14 15 19 4
33 -8 9 -22 14 -32 12 -20 -6 -22 1 -9 22 5 8 16 11 25 8 9 -4 16 -2 16 3 0
15 -36 12 -49 -4z m39 -56 c0 -11 -6 -20 -14 -20 -18 0 -29 16 -21 30 11 18
35 11 35 -10z"/>
<path d="M3264 2545 c-4 -9 -4 -19 0 -22 3 -3 1 -12 -5 -20 -13 -15 4 -43 26
-43 19 0 38 27 29 42 -5 7 -8 22 -9 33 0 24 -33 33 -41 10z m36 -10 c0 -8 -7
-15 -15 -15 -8 0 -15 7 -15 15 0 8 7 15 15 15 8 0 15 -7 15 -15z m0 -45 c0
-11 -7 -20 -15 -20 -8 0 -15 9 -15 20 0 11 7 20 15 20 8 0 15 -9 15 -20z"/>
<path d="M3644 2546 c-10 -26 4 -49 27 -43 15 4 19 1 17 -11 -2 -10 -13 -17
-25 -16 -12 0 -20 -3 -17 -8 3 -4 14 -8 24 -8 21 0 34 32 28 71 -4 29 -45 39
-54 15z m42 -7 c10 -17 -13 -36 -27 -22 -12 12 -4 33 11 33 5 0 12 -5 16 -11z"/>
<path d="M4076 2551 c-4 -5 3 -7 14 -4 23 6 26 13 6 13 -8 0 -17 -4 -20 -9z"/>
<path d="M5010 2545 c-8 -10 -9 -15 -1 -15 6 0 11 5 11 10 0 6 7 10 15 10 21
0 19 -36 -3 -52 -37 -27 -35 -38 5 -37 32 2 33 3 9 6 l-28 5 22 23 c24 26 24
58 -1 63 -9 1 -22 -4 -29 -13z"/>
<path d="M5397 2553 c-4 -3 -7 -11 -7 -17 0 -6 5 -5 12 2 7 7 16 12 20 12 13
0 9 -28 -4 -33 -8 -3 -6 -6 5 -6 19 -1 23 -26 7 -36 -6 -4 -18 -1 -27 7 -14
11 -15 11 -11 -2 2 -8 16 -15 29 -15 21 0 24 5 24 35 0 19 -1 41 -3 48 -4 13
-34 17 -45 5z"/>
<path d="M5793 2525 c-28 -42 -28 -45 -4 -45 11 0 22 -6 24 -12 4 -10 7 -10
14 -1 10 13 5 93 -6 93 -3 0 -16 -16 -28 -35z m17 -15 c0 -11 -7 -20 -15 -20
-13 0 -13 3 -3 20 7 11 14 20 15 20 2 0 3 -9 3 -20z"/>
<path d="M6166 2544 c-11 -27 -7 -36 14 -29 23 7 39 -20 22 -37 -8 -8 -16 -7
-28 3 -15 12 -17 12 -12 -1 2 -8 16 -15 29 -15 20 0 24 5 24 30 0 23 -5 31
-25 36 -25 6 -23 8 20 22 8 3 3 6 -11 6 -16 1 -29 -6 -33 -15z"/>
<path d="M6551 2546 c-17 -20 -10 -67 11 -80 14 -8 22 -7 34 6 15 14 15 19 4
33 -8 9 -22 14 -32 12 -20 -6 -22 1 -9 22 5 8 16 11 25 8 9 -4 16 -2 16 3 0
15 -36 12 -49 -4z m39 -56 c0 -11 -6 -20 -14 -20 -18 0 -29 16 -21 30 11 18
35 11 35 -10z"/>
<path d="M6943 2553 c9 -2 25 -2 35 0 9 3 1 5 -18 5 -19 0 -27 -2 -17 -5z"/>
<path d="M7358 2553 c7 -3 16 -2 19 1 4 3 -2 6 -13 5 -11 0 -14 -3 -6 -6z"/>
<path d="M4000 2540 c-9 -6 -10 -10 -3 -10 6 0 15 5 18 10 8 12 4 12 -15 0z"/>
<path d="M4390 2540 c-9 -6 -10 -10 -3 -10 6 0 15 5 18 10 8 12 4 12 -15 0z"/>
<path d="M4460 2540 c-9 -6 -10 -10 -3 -10 6 0 15 5 18 10 8 12 4 12 -15 0z"/>
<path d="M4062 2510 c0 -14 2 -19 5 -12 2 6 2 18 0 25 -3 6 -5 1 -5 -13z"/>
<path d="M7344 2485 c1 -12 9 -21 21 -22 14 -1 15 0 3 3 -9 3 -19 13 -21 22
-3 12 -4 11 -3 -3z"/>
<path d="M4078 2468 c5 -5 16 -8 23 -6 8 3 3 7 -10 11 -17 4 -21 3 -13 -5z"/>
<path d="M180 2335 c0 -30 5 -55 10 -55 6 0 10 11 10 25 0 16 6 25 15 25 9 0
21 -11 27 -25 6 -14 15 -25 20 -25 13 0 9 16 -7 30 -14 12 -14 15 1 31 23 26
3 49 -42 49 l-34 0 0 -55z m70 25 c0 -15 -7 -20 -25 -20 -18 0 -25 5 -25 20 0
15 7 20 25 20 18 0 25 -5 25 -20z"/>
<path d="M671 2333 c1 -32 4 -46 6 -30 3 20 10 27 27 27 29 0 49 22 40 44 -4
10 -18 16 -40 16 l-34 0 1 -57z m59 27 c0 -15 -7 -20 -25 -20 -18 0 -25 5 -25
20 0 15 7 20 25 20 18 0 25 -5 25 -20z"/>
<path d="M1220 2335 c0 -30 5 -55 10 -55 6 0 10 25 10 55 0 30 -4 55 -10 55
-5 0 -10 -25 -10 -55z"/>
<path d="M1500 2371 c0 -14 -5 -18 -19 -14 -13 3 -23 -2 -30 -16 -16 -30 2
-61 34 -59 23 2 25 6 25 55 0 29 -2 53 -5 53 -3 0 -5 -9 -5 -19z m-5 -51 c0
-13 -6 -25 -12 -27 -16 -6 -27 21 -19 43 9 23 31 11 31 -16z"/>
<path d="M296 2351 c-3 -4 6 -6 19 -3 33 6 32 -14 0 -22 -16 -4 -25 -13 -25
-26 0 -15 7 -19 33 -18 31 1 32 2 29 40 -4 32 -8 38 -27 38 -13 0 -26 -4 -29
-9z m44 -41 c0 -13 -28 -25 -38 -16 -3 4 0 11 8 16 20 13 30 12 30 0z"/>
<path d="M370 2321 c0 -23 5 -41 10 -41 6 0 10 16 10 35 0 24 5 35 15 35 10 0
15 -11 15 -35 0 -19 5 -35 11 -35 6 0 9 16 7 38 -3 34 -6 37 -35 40 -32 3 -33
2 -33 -37z"/>
<path d="M462 2348 c-27 -27 0 -77 34 -64 10 4 14 2 11 -6 -2 -7 -16 -12 -31
-11 -14 1 -24 -2 -21 -8 9 -13 39 -11 53 3 7 7 12 30 12 53 0 35 -3 41 -23 43
-13 1 -29 -4 -35 -10z m42 -13 c7 -20 -3 -45 -19 -45 -16 0 -26 25 -19 45 4 8
12 15 19 15 7 0 15 -7 19 -15z"/>
<path d="M544 2346 c-11 -29 1 -61 23 -64 29 -4 48 30 33 58 -12 23 -48 27
-56 6z m41 -26 c0 -27 -22 -39 -31 -16 -8 22 3 49 19 43 6 -2 12 -14 12 -27z"/>
<path d="M772 2348 c-25 -25 -7 -68 29 -68 10 0 21 5 24 10 4 7 -2 9 -18 5
-17 -5 -26 -2 -30 9 -5 12 0 16 24 16 24 0 30 4 27 18 -4 21 -39 27 -56 10z
m43 -8 c4 -6 -5 -10 -20 -10 -15 0 -24 4 -20 10 3 6 12 10 20 10 8 0 17 -4 20
-10z"/>
<path d="M851 2315 c2 -33 3 -35 6 -10 2 17 11 35 20 42 13 10 13 12 -6 10
-18 -1 -21 -7 -20 -42z"/>
<path d="M907 2353 c-15 -14 -6 -31 18 -37 15 -4 23 -11 19 -17 -3 -6 -15 -9
-25 -6 -11 3 -19 1 -19 -5 0 -5 12 -8 27 -6 37 4 43 35 9 44 -14 3 -26 11 -26
16 0 6 9 8 20 5 11 -3 20 -1 20 4 0 10 -33 12 -43 2z"/>
<path d="M982 2348 c-27 -27 -3 -73 35 -66 27 5 25 72 -2 76 -11 1 -26 -3 -33
-10z m43 -28 c0 -15 -6 -26 -16 -28 -19 -3 -31 21 -22 43 9 25 38 13 38 -15z"/>
<path d="M1061 2316 l2 -41 6 35 c4 22 12 35 21 35 9 0 18 -13 22 -35 l6 -35
-1 40 c-2 36 -5 40 -29 41 -26 1 -28 -1 -27 -40z"/>
<path d="M1146 2351 c-3 -4 6 -6 19 -3 33 6 32 -14 -1 -22 -36 -9 -28 -41 11
-43 29 -1 30 0 27 38 -4 33 -8 39 -27 39 -13 0 -26 -4 -29 -9z m44 -41 c0 -13
-28 -25 -38 -16 -3 4 0 11 8 16 20 13 30 12 30 0z"/>
<path d="M1263 2320 c0 -25 2 -35 4 -22 2 12 2 32 0 45 -2 12 -4 2 -4 -23z"/>
<path d="M1307 2353 l23 -4 -26 -35 -26 -34 38 1 c36 1 37 2 10 8 -27 5 -28 7
-12 20 9 8 22 23 27 33 9 16 6 18 -23 17 -24 -1 -27 -3 -11 -6z"/>
<path d="M1370 2351 c0 -6 7 -8 15 -5 31 12 37 -9 5 -22 -39 -17 -35 -39 9
-40 31 -1 32 0 29 35 -3 31 -7 36 -30 39 -16 2 -28 -1 -28 -7z m44 -46 c-6
-16 -34 -21 -34 -7 0 13 11 22 26 22 8 0 11 -6 8 -15z"/>
<path d="M1534 2346 c-12 -31 0 -61 25 -61 31 0 50 28 35 53 -14 22 -52 28
-60 8z m49 -8 c6 -21 -4 -48 -19 -48 -18 0 -28 24 -20 45 7 18 33 20 39 3z"/>
<path d="M2056 2235 c-17 -13 -17 -15 -4 -15 12 0 18 -11 21 -37 3 -31 4 -29
5 15 1 28 1 52 0 52 -2 0 -12 -7 -22 -15z"/>
<path d="M2117 2244 c-4 -4 -7 -12 -7 -18 0 -6 5 -5 12 2 7 7 18 12 25 12 21
0 15 -25 -12 -50 -33 -31 -32 -40 8 -39 25 1 27 3 9 6 l-24 5 22 23 c12 13 20
31 18 42 -3 18 -38 30 -51 17z"/>
<path d="M2466 2235 c-17 -13 -17 -15 -4 -15 12 0 18 -11 21 -37 3 -31 4 -29
5 15 1 28 1 52 0 52 -2 0 -12 -7 -22 -15z"/>
<path d="M2530 2235 c-7 -9 -8 -15 -2 -15 6 0 12 5 14 12 2 6 10 8 17 4 9 -6
9 -11 0 -22 -8 -10 -8 -14 0 -14 6 0 11 -9 11 -20 0 -23 -20 -26 -39 -7 -10
10 -11 9 -6 -5 4 -10 15 -18 25 -18 23 0 44 26 34 42 -5 7 -8 22 -9 33 0 25
-28 31 -45 10z"/>
<path d="M2850 2235 c-8 -9 -9 -15 -2 -15 6 0 13 -17 15 -37 3 -31 4 -29 5 15
2 57 1 60 -18 37z"/>
<path d="M2927 2215 l-27 -40 22 -4 c13 -1 26 -7 29 -13 10 -16 15 14 9 57
l-5 40 -28 -40z m23 -15 c0 -11 -7 -20 -15 -20 -18 0 -19 12 -3 28 16 16 18
15 18 -8z"/>
<path d="M3236 2235 c-17 -13 -17 -15 -4 -15 12 0 18 -11 21 -37 3 -31 4 -29
5 15 1 28 1 52 0 52 -2 0 -12 -7 -22 -15z"/>
<path d="M3298 2225 c-5 -22 -2 -24 18 -19 21 5 24 2 24 -20 0 -28 -18 -34
-39 -13 -11 10 -13 9 -9 -3 7 -24 45 -24 58 0 13 24 -1 50 -26 50 -23 0 -16
18 9 23 20 4 19 4 -4 6 -21 1 -28 -4 -31 -24z"/>
<path d="M3620 2235 c-8 -9 -9 -15 -2 -15 6 0 13 -17 15 -37 3 -31 4 -29 5 15
2 57 1 60 -18 37z"/>
<path d="M3678 2225 c-16 -36 4 -78 35 -73 32 4 31 52 -1 56 -29 4 -22 28 7
25 13 -2 20 1 16 7 -12 19 -45 10 -57 -15z m47 -45 c0 -8 -8 -16 -17 -18 -13
-2 -18 3 -18 18 0 15 5 20 18 18 9 -2 17 -10 17 -18z"/>
<path d="M4083 2243 c16 -3 25 -9 21 -15 -4 -7 -2 -8 4 -4 22 14 12 26 -20 25
-31 -2 -31 -2 -5 -6z"/>
<path d="M4453 2235 c-3 -9 -3 -19 1 -22 3 -4 6 2 6 11 0 13 6 17 20 13 11 -3
18 -1 14 4 -9 14 -34 10 -41 -6z"/>
<path d="M5011 2237 c-16 -19 -3 -47 21 -47 11 0 18 -5 15 -12 -2 -7 -12 -12
-21 -12 -9 1 -16 -3 -16 -8 0 -22 45 -2 54 25 17 46 -25 88 -53 54z m41 -21
c4 -20 2 -23 -14 -17 -11 4 -19 10 -19 14 1 4 1 12 1 17 0 21 28 9 32 -14z"/>
<path d="M5370 2235 c-8 -9 -9 -15 -2 -15 6 0 13 -17 15 -37 3 -31 4 -29 5 15
2 57 1 60 -18 37z"/>
<path d="M5434 2236 c-3 -8 -4 -29 -2 -48 2 -25 8 -34 25 -36 26 -4 39 31 29
73 -7 28 -43 35 -52 11z m41 -37 c0 -24 -5 -34 -15 -34 -16 0 -25 37 -16 62
10 26 31 8 31 -28z"/>
<path d="M5760 2235 c-8 -9 -9 -15 -2 -15 6 0 13 -17 15 -37 3 -31 4 -29 5 15
2 57 1 60 -18 37z"/>
<path d="M5826 2235 c-17 -13 -17 -15 -4 -15 12 0 18 -11 21 -37 3 -31 4 -29
5 15 1 28 1 52 0 52 -2 0 -12 -7 -22 -15z"/>
<path d="M6140 2235 c-8 -9 -9 -15 -2 -15 6 0 13 -17 15 -37 3 -31 4 -29 5 15
2 57 1 60 -18 37z"/>
<path d="M6205 2239 c-4 -6 -4 -13 -1 -16 3 -4 6 -1 6 5 0 14 26 16 35 3 3 -6
-9 -26 -26 -45 l-31 -36 38 1 c38 1 38 2 9 8 -29 7 -29 7 -9 19 25 13 36 36
28 57 -7 17 -40 20 -49 4z"/>
<path d="M6526 2235 c-17 -13 -17 -15 -4 -15 12 0 18 -11 21 -37 3 -31 4 -29
5 15 1 28 1 52 0 52 -2 0 -12 -7 -22 -15z"/>
<path d="M6590 2235 c-7 -9 -8 -15 -2 -15 6 0 12 5 14 12 2 6 10 8 17 4 9 -6
9 -11 0 -22 -8 -10 -8 -14 0 -14 6 0 11 -9 11 -20 0 -23 -20 -26 -39 -7 -10
10 -11 9 -6 -5 4 -10 15 -18 25 -18 23 0 44 26 34 42 -5 7 -8 22 -9 33 0 25
-28 31 -45 10z"/>
<path d="M7398 2243 c6 -2 18 -2 25 0 6 3 1 5 -13 5 -14 0 -19 -2 -12 -5z"/>
<path d="M4000 2230 c-9 -6 -10 -10 -3 -10 6 0 15 5 18 10 8 12 4 12 -15 0z"/>
<path d="M4403 2195 c0 -27 2 -38 4 -22 2 15 2 37 0 50 -2 12 -4 0 -4 -28z"/>
<path d="M6923 2195 c0 -27 2 -38 4 -22 2 15 2 37 0 50 -2 12 -4 0 -4 -28z"/>
<path d="M7333 2195 c0 -27 2 -38 4 -22 2 15 2 37 0 50 -2 12 -4 0 -4 -28z"/>
<path d="M4482 2213 c-10 -4 -9 -8 4 -17 21 -16 9 -40 -17 -33 -11 3 -17 1
-13 -4 8 -14 30 -11 44 6 9 11 10 18 1 28 -6 8 -8 17 -4 20 7 8 4 8 -15 0z"/>
<path d="M7385 2210 c-4 -6 1 -7 11 -3 11 4 22 -1 30 -12 8 -10 14 -14 14 -9
0 26 -42 44 -55 24z"/>
<path d="M6983 2173 c9 -2 25 -2 35 0 9 3 1 5 -18 5 -19 0 -27 -2 -17 -5z"/>
<path d="M7387 2158 c2 -5 10 -8 18 -8 8 0 16 3 18 8 3 4 -5 7 -18 7 -13 0
-21 -3 -18 -7z"/>
<path d="M2056 1925 c-17 -13 -17 -15 -4 -15 12 0 18 -11 21 -37 3 -31 4 -29
5 15 1 28 1 52 0 52 -2 0 -12 -7 -22 -15z"/>
<path d="M2114 1925 c-9 -24 3 -45 27 -45 12 0 19 -5 16 -12 -2 -7 -14 -12
-26 -11 -13 2 -20 -1 -16 -7 3 -6 15 -10 26 -10 26 0 44 46 30 77 -12 26 -49
31 -57 8z m46 -15 c0 -21 -24 -28 -35 -10 -8 14 3 30 21 30 8 0 14 -9 14 -20z"/>
<path d="M2450 1925 c-8 -10 -9 -15 -1 -15 6 0 11 5 11 10 0 6 7 10 15 10 21
0 19 -36 -3 -52 -37 -27 -35 -38 5 -37 32 2 33 3 9 6 l-28 5 22 23 c24 26 24
58 -1 63 -9 1 -22 -4 -29 -13z"/>
<path d="M2532 1928 c-26 -26 -8 -88 25 -88 23 0 38 46 25 75 -13 27 -31 32
-50 13z m38 -38 c0 -28 -4 -40 -14 -40 -18 0 -30 33 -21 60 12 37 35 23 35
-20z"/>
<path d="M2837 1933 c-14 -13 -6 -25 8 -13 12 10 19 10 27 2 9 -9 5 -19 -15
-40 -35 -36 -34 -42 6 -41 23 1 26 3 10 6 l-23 4 22 29 c11 16 18 36 15 44 -6
16 -38 22 -50 9z"/>
<path d="M2926 1925 c-17 -13 -17 -15 -4 -15 12 0 18 -11 21 -37 3 -31 4 -29
5 15 1 28 1 52 0 52 -2 0 -12 -7 -22 -15z"/>
<path d="M3220 1925 c-8 -10 -9 -15 -1 -15 6 0 11 5 11 10 0 6 7 10 15 10 21
0 19 -36 -3 -52 -37 -27 -35 -38 5 -37 32 2 33 3 9 6 l-28 5 22 23 c24 26 24
58 -1 63 -9 1 -22 -4 -29 -13z"/>
<path d="M3297 1934 c-4 -4 -7 -12 -7 -18 0 -6 5 -5 12 2 7 7 18 12 25 12 21
0 15 -25 -12 -50 -33 -31 -32 -40 8 -39 25 1 27 3 9 6 l-24 5 22 23 c12 13 20
31 18 42 -3 18 -38 30 -51 17z"/>
<path d="M3607 1933 c-14 -13 -6 -25 8 -13 12 10 19 10 27 2 9 -9 5 -19 -15
-40 -35 -36 -34 -42 6 -41 23 1 26 3 10 6 l-23 4 22 29 c11 16 18 36 15 44 -6
16 -38 22 -50 9z"/>
<path d="M3687 1933 c-4 -3 -7 -11 -7 -17 0 -6 5 -5 12 2 16 16 28 15 28 -3 0
-8 -5 -15 -12 -15 -6 0 -4 -6 7 -13 10 -8 15 -19 11 -25 -9 -15 -33 -16 -39
-2 -3 6 -4 5 -3 -2 2 -7 14 -13 27 -13 21 0 24 5 24 35 1 49 -25 77 -48 53z"/>
<path d="M3997 1933 c-3 -5 5 -8 18 -8 13 0 21 3 18 8 -2 4 -10 7 -18 7 -8 0
-16 -3 -18 -7z"/>
<path d="M4101 1908 c-1 -32 -5 -38 -23 -39 -21 -1 -21 -2 -3 -6 11 -3 23 -10
26 -15 11 -17 15 15 8 57 l-6 40 -2 -37z"/>
<path d="M4375 1929 c-4 -6 -4 -13 -1 -16 3 -4 6 -1 6 5 0 6 8 13 18 15 15 4
15 5 0 6 -9 0 -20 -4 -23 -10z"/>
<path d="M4468 1933 c6 -2 18 -2 25 0 6 3 1 5 -13 5 -14 0 -19 -2 -12 -5z"/>
<path d="M4986 1925 c-17 -13 -17 -15 -4 -15 12 0 18 -11 21 -37 3 -31 4 -29
5 15 1 28 1 52 0 52 -2 0 -12 -7 -22 -15z"/>
<path d="M5051 1926 c-17 -20 -10 -67 11 -80 14 -8 22 -7 34 6 15 14 15 19 4
33 -8 9 -22 14 -32 12 -20 -6 -22 1 -9 22 5 8 16 11 26 8 9 -4 14 -3 10 3 -9
14 -31 12 -44 -4z m39 -56 c0 -11 -6 -20 -14 -20 -18 0 -29 16 -21 30 11 18
35 11 35 -10z"/>
<path d="M5370 1925 c-8 -9 -9 -15 -2 -15 6 0 13 -17 15 -37 3 -31 4 -29 5 15
2 57 1 60 -18 37z"/>
<path d="M5447 1933 c21 -4 21 -6 7 -40 -8 -19 -13 -40 -11 -46 3 -7 8 -3 12
8 6 17 21 53 33 78 2 4 -11 6 -30 6 -22 -1 -26 -3 -11 -6z"/>
<path d="M5756 1925 c-17 -13 -17 -15 -4 -15 12 0 18 -11 21 -37 3 -31 4 -29
5 15 1 28 1 52 0 52 -2 0 -12 -7 -22 -15z"/>
<path d="M5817 1927 c-3 -8 0 -20 6 -26 8 -8 8 -11 -2 -11 -22 0 -8 -45 15
-48 25 -4 49 22 38 40 -5 7 -8 22 -9 33 0 24 -40 33 -48 12z m43 -12 c0 -8 -7
-15 -15 -15 -8 0 -15 7 -15 15 0 8 7 15 15 15 8 0 15 -7 15 -15z m0 -45 c0
-11 -6 -20 -14 -20 -18 0 -29 16 -21 30 11 18 35 11 35 -10z"/>
<path d="M6140 1925 c-8 -9 -9 -15 -2 -15 6 0 13 -17 15 -37 3 -31 4 -29 5 15
2 57 1 60 -18 37z"/>
<path d="M6204 1925 c-10 -25 4 -48 26 -42 22 6 25 0 11 -22 -6 -9 -16 -11
-27 -7 -16 6 -17 5 -6 -6 30 -30 70 43 41 78 -15 18 -38 18 -45 -1z m41 -16
c0 -7 -8 -15 -17 -17 -18 -3 -25 18 -11 32 10 10 28 1 28 -15z"/>
<path d="M6510 1925 c-8 -10 -9 -15 -1 -15 6 0 11 5 11 10 0 6 7 10 15 10 21
0 19 -36 -3 -52 -37 -27 -35 -38 5 -37 32 2 33 3 9 6 l-28 5 22 23 c24 26 24
58 -1 63 -9 1 -22 -4 -29 -13z"/>
<path d="M6592 1928 c-26 -26 -8 -88 25 -88 23 0 38 46 25 75 -13 27 -31 32
-50 13z m38 -38 c0 -28 -4 -40 -14 -40 -18 0 -30 33 -21 60 12 37 35 23 35
-20z"/>
<path d="M6895 1929 c-4 -6 -4 -13 -1 -16 3 -4 6 -1 6 5 0 6 8 13 18 15 15 4
15 5 0 6 -9 0 -20 -4 -23 -10z"/>
<path d="M6989 1923 c-8 -10 -9 -14 -2 -10 8 5 13 -6 16 -35 3 -41 4 -41 5 10
1 28 0 52 -2 52 -2 0 -10 -8 -17 -17z"/>
<path d="M7305 1929 c-4 -6 -4 -13 -1 -16 3 -4 6 -1 6 5 0 6 8 13 18 15 15 4
15 5 0 6 -9 0 -20 -4 -23 -10z"/>
<path d="M7387 1933 c-3 -5 5 -8 18 -8 13 0 21 3 18 8 -2 4 -10 7 -18 7 -8 0
-16 -3 -18 -7z"/>
<path d="M4455 1900 c-4 -6 1 -7 11 -3 11 4 22 -1 30 -12 8 -10 14 -14 14 -9
0 26 -42 44 -55 24z"/>
<path d="M4392 1877 c-30 -31 -28 -37 11 -36 31 2 31 2 3 6 l-28 5 23 24 c12
13 20 24 17 24 -2 0 -14 -10 -26 -23z"/>
<path d="M6912 1877 c-30 -31 -28 -37 11 -36 31 2 31 2 3 6 l-28 5 23 24 c12
13 20 24 17 24 -2 0 -14 -10 -26 -23z"/>
<path d="M7322 1877 c-30 -31 -28 -37 11 -36 31 2 31 2 3 6 l-28 5 23 24 c12
13 20 24 17 24 -2 0 -14 -10 -26 -23z"/>
<path d="M7402 1877 c-29 -31 -28 -37 6 -36 24 2 25 2 4 6 l-24 5 23 24 c12
13 20 24 17 24 -2 0 -14 -10 -26 -23z"/>
<path d="M4000 1865 l-23 -25 34 1 c25 1 28 3 11 6 -23 4 -23 5 -6 24 26 28
11 23 -16 -6z"/>
<path d="M4457 1848 c2 -5 10 -8 18 -8 8 0 16 3 18 8 3 4 -5 7 -18 7 -13 0
-21 -3 -18 -7z"/>
<path d="M2040 1615 c-8 -10 -9 -15 -1 -15 6 0 11 5 11 10 0 6 7 10 15 10 21
0 19 -36 -3 -52 -37 -27 -35 -38 5 -37 32 2 33 3 9 6 l-28 5 22 23 c24 26 24
58 -1 63 -9 1 -22 -4 -29 -13z"/>
<path d="M2121 1616 c-17 -20 -10 -67 11 -80 14 -8 22 -7 34 6 15 14 15 19 4
33 -8 9 -22 14 -32 12 -20 -6 -22 1 -9 22 5 8 16 11 26 8 9 -4 14 -3 10 3 -9
14 -31 12 -44 -4z m39 -56 c0 -21 -24 -28 -35 -10 -8 14 3 30 21 30 8 0 14 -9
14 -20z"/>
<path d="M2450 1615 c-8 -10 -9 -15 -1 -15 6 0 11 5 11 10 0 6 7 10 15 10 21
0 19 -36 -3 -52 -37 -27 -35 -38 5 -37 32 2 33 3 9 6 l-28 5 22 23 c24 26 24
58 -1 63 -9 1 -22 -4 -29 -13z"/>
<path d="M2542 1623 c25 -4 26 -5 12 -31 -8 -15 -14 -36 -13 -47 0 -12 6 -5
15 19 8 21 19 45 25 52 9 11 4 14 -27 13 -29 -2 -32 -3 -12 -6z"/>
<path d="M2837 1623 c-14 -13 -6 -25 8 -13 12 10 19 10 27 2 9 -9 5 -19 -15
-40 -35 -36 -34 -42 6 -41 23 1 26 3 10 6 l-23 4 22 29 c11 16 18 36 15 44 -6
16 -38 22 -50 9z"/>
<path d="M2915 1618 c-2 -7 -3 -29 -2 -48 2 -30 5 -35 27 -35 18 0 26 6 28 23
2 13 -2 22 -9 22 -10 0 -10 3 -2 11 6 6 9 18 6 25 -6 17 -42 18 -48 2z m35
-13 c0 -8 -4 -15 -9 -15 -13 0 -22 16 -14 24 11 11 23 6 23 -9z m5 -45 c0 -8
-8 -16 -17 -18 -13 -2 -18 3 -18 18 0 15 5 20 18 18 9 -2 17 -10 17 -18z"/>
<path d="M3220 1615 c-8 -10 -9 -15 -1 -15 6 0 11 5 11 10 0 6 7 10 15 10 21
0 19 -36 -3 -52 -37 -27 -35 -38 5 -37 32 2 33 3 9 6 l-28 5 22 23 c24 26 24
58 -1 63 -9 1 -22 -4 -29 -13z"/>
<path d="M3294 1615 c-9 -24 3 -45 27 -45 12 0 19 -5 16 -12 -2 -7 -14 -12
-26 -11 -13 2 -20 -1 -16 -7 3 -6 15 -10 26 -10 26 0 44 46 30 77 -12 26 -49
31 -57 8z m46 -15 c0 -11 -6 -20 -14 -20 -18 0 -29 16 -21 30 11 18 35 11 35
-10z"/>
<path d="M3607 1623 c-4 -3 -7 -11 -7 -17 0 -6 5 -5 12 2 7 7 16 12 20 12 13
0 9 -28 -4 -33 -8 -3 -6 -6 5 -6 19 -1 23 -26 7 -36 -6 -4 -18 -1 -27 7 -14
11 -15 11 -11 -2 2 -8 16 -15 29 -15 21 0 24 5 24 35 0 19 -1 41 -3 48 -4 13
-34 17 -45 5z"/>
<path d="M3684 1616 c-3 -8 -4 -29 -2 -48 2 -25 8 -34 25 -36 26 -4 39 31 29
73 -7 28 -43 35 -52 11z m41 -37 c0 -24 -5 -34 -15 -34 -16 0 -25 37 -16 62
10 26 31 8 31 -28z"/>
<path d="M3996 1621 c-4 -5 3 -7 14 -4 23 6 26 13 6 13 -8 0 -17 -4 -20 -9z"/>
<path d="M4970 1615 c-8 -10 -9 -15 -1 -15 6 0 11 5 11 10 0 6 7 10 15 10 21
0 19 -36 -3 -52 -37 -27 -35 -38 5 -37 32 2 33 3 9 6 l-28 5 22 23 c24 26 24
58 -1 63 -9 1 -22 -4 -29 -13z"/>
<path d="M5050 1615 c-7 -9 -8 -15 -2 -15 6 0 12 5 14 12 2 6 10 8 17 4 9 -6
9 -11 0 -22 -8 -10 -8 -14 0 -14 6 0 11 -9 11 -20 0 -23 -20 -26 -39 -7 -10
10 -11 9 -6 -5 4 -10 15 -18 25 -18 23 0 44 26 34 42 -5 7 -8 22 -9 33 0 25
-28 31 -45 10z"/>
<path d="M5357 1623 c-14 -13 -6 -25 8 -13 12 10 19 10 27 2 9 -9 5 -19 -15
-40 -35 -36 -34 -42 6 -41 23 1 26 3 10 6 l-23 4 22 29 c11 16 18 36 15 44 -6
16 -38 22 -50 9z"/>
<path d="M5447 1595 l-27 -40 22 -4 c13 -1 26 -7 29 -13 10 -16 15 14 9 57
l-5 40 -28 -40z m23 -15 c0 -11 -7 -20 -15 -20 -18 0 -19 12 -3 28 16 16 18
15 18 -8z"/>
<path d="M5740 1615 c-8 -10 -9 -15 -1 -15 6 0 11 5 11 10 0 6 7 10 15 10 21
0 19 -36 -3 -52 -37 -27 -35 -38 5 -37 32 2 33 3 9 6 l-28 5 22 23 c24 26 24
58 -1 63 -9 1 -22 -4 -29 -13z"/>
<path d="M5818 1605 c-5 -22 -2 -24 18 -19 21 5 24 2 24 -20 0 -28 -18 -34
-39 -13 -11 10 -13 9 -9 -3 7 -24 45 -24 58 0 13 24 -1 50 -26 50 -23 0 -16
18 9 23 20 4 19 4 -4 6 -21 1 -28 -4 -31 -24z"/>
<path d="M6127 1623 c-14 -13 -6 -25 8 -13 12 10 19 10 27 2 9 -9 5 -19 -15
-40 -35 -36 -34 -42 6 -41 23 1 26 3 10 6 l-23 4 22 29 c11 16 18 36 15 44 -6
16 -38 22 -50 9z"/>
<path d="M6198 1605 c-16 -36 4 -78 35 -73 32 4 31 52 -1 56 -29 4 -22 28 7
25 13 -2 20 1 16 7 -12 19 -45 10 -57 -15z m47 -45 c0 -8 -8 -16 -17 -18 -13
-2 -18 3 -18 18 0 15 5 20 18 18 9 -2 17 -10 17 -18z"/>
<path d="M6510 1615 c-8 -10 -9 -15 -1 -15 6 0 11 5 11 10 0 6 7 10 15 10 21
0 19 -36 -3 -52 -37 -27 -35 -38 5 -37 32 2 33 3 9 6 l-28 5 22 23 c24 26 24
58 -1 63 -9 1 -22 -4 -29 -13z"/>
<path d="M6602 1623 c25 -4 26 -5 12 -31 -8 -15 -14 -36 -13 -47 0 -12 6 -5
15 19 8 21 19 45 25 52 9 11 4 14 -27 13 -29 -2 -32 -3 -12 -6z"/>
<path d="M6895 1619 c-4 -6 -4 -13 -1 -16 3 -4 6 -1 6 5 0 6 8 13 18 15 15 4
15 5 0 6 -9 0 -20 -4 -23 -10z"/>
<path d="M6973 1615 c-3 -9 -3 -19 1 -22 3 -4 6 2 6 11 0 13 6 17 20 13 11 -3
18 -1 14 4 -9 14 -34 10 -41 -6z"/>
<path d="M4080 1610 c-9 -6 -10 -10 -3 -10 6 0 15 5 18 10 8 12 4 12 -15 0z"/>
<path d="M7002 1593 c-10 -4 -9 -8 4 -17 21 -16 9 -40 -17 -33 -11 3 -17 1
-13 -4 8 -14 30 -11 44 6 9 11 10 18 1 28 -6 8 -8 17 -4 20 7 8 4 8 -15 0z"/>
<path d="M4010 1586 c0 -2 7 -7 16 -10 8 -3 12 -2 9 4 -6 10 -25 14 -25 6z"/>
<path d="M6912 1567 c-30 -31 -28 -37 11 -36 31 2 31 2 3 6 l-28 5 23 24 c12
13 20 24 17 24 -2 0 -14 -10 -26 -23z"/>
<path d="M3997 1538 c2 -5 10 -8 18 -8 8 0 16 3 18 8 3 4 -5 7 -18 7 -13 0
-21 -3 -18 -7z"/>
<path d="M6896 564 c-13 -13 -16 -43 -16 -169 0 -126 3 -156 16 -169 13 -14
59 -16 349 -16 290 0 336 2 349 16 23 23 23 315 0 338 -13 14 -59 16 -349 16
-290 0 -336 -2 -349 -16z m192 -166 l21 -53 0 38 c1 35 3 37 34 37 18 0 38 -5
45 -12 9 -9 12 -6 12 15 0 17 5 27 15 27 12 0 15 -13 15 -55 0 -42 -3 -55 -15
-55 -8 0 -15 5 -15 12 0 9 -3 9 -12 0 -7 -7 -20 -12 -30 -12 -10 0 -18 -7 -18
-15 0 -8 -7 -15 -15 -15 -8 0 -15 7 -15 15 0 8 -9 15 -20 15 -11 0 -20 7 -20
15 0 8 -9 15 -20 15 -11 0 -20 -7 -20 -15 0 -8 -9 -15 -20 -15 -20 0 -20 0 0
50 11 28 20 53 20 55 0 3 8 5 19 5 13 0 24 -15 39 -52z m182 42 c0 -5 -7 -10
-15 -10 -8 0 -15 5 -15 10 0 6 7 10 15 10 8 0 15 -4 15 -10z m0 -60 c0 -29 -4
-40 -15 -40 -11 0 -15 11 -15 40 0 29 4 40 15 40 11 0 15 -11 15 -40z m88 22
c3 -9 -3 -13 -19 -10 -16 2 -24 -2 -24 -12 0 -18 37 -15 75 6 25 13 25 13 3
14 -13 0 -23 5 -23 11 0 6 14 9 33 7 29 -3 32 -6 35 -40 l3 -37 -68 1 c-37 0
-74 5 -80 10 -17 13 -17 40 -1 56 16 16 60 11 66 -6z m152 9 c0 -5 -7 -11 -15
-15 -8 -3 -15 -17 -15 -31 0 -16 -6 -25 -15 -25 -11 0 -15 11 -15 40 0 38 2
40 30 40 17 0 30 -4 30 -9z"/>
<path d="M7144 389 c-3 -6 -1 -16 5 -22 8 -8 11 -5 11 11 0 24 -5 28 -16 11z"/>
<path d="M7395 370 c-3 -5 -1 -10 4 -10 6 0 11 5 11 10 0 6 -2 10 -4 10 -3 0
-8 -4 -11 -10z"/>
<path d="M4044 436 c-3 -8 -4 -31 -2 -52 3 -34 6 -39 27 -39 30 0 46 40 32 78
-11 29 -48 37 -57 13z m41 -42 c0 -28 -4 -39 -15 -39 -16 0 -26 45 -16 72 11
28 31 7 31 -33z"/>
<path d="M4142 443 c26 -4 26 -5 12 -38 -8 -19 -14 -42 -13 -52 0 -10 7 0 15
22 8 22 19 44 24 49 19 19 10 26 -27 25 -29 -2 -32 -3 -11 -6z"/>
<path d="M4221 428 c-9 -25 -24 -99 -16 -83 3 6 11 31 19 58 14 48 12 65 -3
25z"/>
<path d="M4254 436 c-3 -8 -4 -31 -2 -52 3 -34 6 -39 27 -39 30 0 46 40 32 78
-11 29 -48 37 -57 13z m41 -42 c0 -28 -4 -39 -15 -39 -16 0 -26 45 -16 72 11
28 31 7 31 -33z"/>
<path d="M4358 436 c-19 -14 -25 -32 -8 -21 6 4 10 -10 10 -34 0 -23 5 -41 10
-41 6 0 10 25 10 55 0 30 -1 55 -2 55 -2 0 -11 -7 -20 -14z"/>
<path d="M4431 428 c-9 -25 -24 -99 -16 -83 3 6 11 31 19 58 14 48 12 65 -3
25z"/>
<path d="M4460 435 c-8 -10 -9 -15 -1 -15 6 0 11 5 11 10 0 6 6 10 14 10 29 0
27 -21 -3 -56 -17 -19 -31 -37 -31 -39 0 -3 17 -4 38 -4 31 2 33 3 8 6 l-28 5
27 28 c15 15 25 36 23 47 -4 23 -41 29 -58 8z"/>
<path d="M4546 434 c-9 -22 -7 -67 3 -82 26 -42 75 25 53 73 -13 28 -47 34
-56 9z m39 -40 c0 -28 -4 -39 -15 -39 -16 0 -26 45 -16 72 11 28 31 7 31 -33z"/>
<path d="M4627 444 c-4 -4 -7 -12 -7 -18 0 -6 5 -5 12 2 7 7 18 12 25 12 22 0
15 -35 -12 -60 -34 -32 -31 -40 13 -39 31 2 33 3 8 6 l-28 5 28 29 c23 24 26
33 18 47 -12 18 -45 28 -57 16z"/>
<path d="M4712 438 c-17 -17 -15 -73 3 -88 25 -20 50 -8 50 25 0 26 -4 30 -27
30 -22 -1 -25 2 -17 17 11 21 20 22 38 6 11 -11 13 -10 9 2 -6 19 -40 24 -56
8z m43 -63 c0 -11 -7 -21 -16 -23 -18 -3 -33 23 -23 39 10 17 39 5 39 -16z"/>
<path d="M4932 438 c-17 -17 -15 -73 4 -89 23 -19 48 1 52 40 5 50 -27 78 -56
49z m44 -22 c7 -31 -3 -66 -21 -66 -16 0 -26 38 -18 68 7 29 31 28 39 -2z"/>
<path d="M5023 443 c32 -5 31 -2 11 -41 -8 -18 -14 -40 -11 -50 2 -10 8 -1 16
25 6 23 16 45 21 48 22 13 8 25 -27 24 -31 -2 -33 -3 -10 -6z"/>
<path d="M5100 409 c-6 -24 -13 -51 -16 -59 -3 -10 -2 -11 4 -5 10 11 33 97
27 103 -2 2 -9 -16 -15 -39z"/>
<path d="M5136 434 c-9 -22 -7 -67 3 -82 26 -42 75 25 53 73 -13 28 -47 34
-56 9z m39 -40 c0 -28 -4 -39 -15 -39 -16 0 -26 45 -16 72 11 28 31 7 31 -33z"/>
<path d="M5235 430 c-16 -17 -16 -20 -3 -15 14 5 17 -1 21 -37 3 -38 4 -37 5
15 1 31 0 57 -1 57 -2 0 -12 -9 -22 -20z"/>
<path d="M5306 399 c-9 -29 -14 -54 -12 -56 2 -3 11 19 20 48 8 29 13 55 11
57 -2 2 -11 -20 -19 -49z"/>
<path d="M5347 444 c-4 -4 -7 -12 -7 -18 0 -6 5 -5 12 2 7 7 18 12 25 12 22 0
15 -35 -12 -60 -34 -32 -31 -40 13 -39 31 2 33 3 8 6 l-28 5 22 23 c27 28 24
69 -5 73 -12 2 -24 0 -28 -4z"/>
<path d="M5432 438 c-17 -17 -15 -73 4 -89 23 -19 48 1 52 40 5 50 -27 78 -56
49z m44 -22 c7 -31 -3 -66 -21 -66 -16 0 -26 38 -18 68 7 29 31 28 39 -2z"/>
<path d="M5515 440 c-4 -6 -4 -14 -1 -17 3 -4 6 -1 6 5 0 18 30 14 37 -4 3 -9
-7 -28 -28 -50 l-33 -34 40 1 c31 2 33 3 11 6 l-28 4 26 25 c32 29 31 67 -2
72 -11 2 -24 -2 -28 -8z"/>
<path d="M5602 441 c-9 -5 -12 -24 -10 -52 3 -39 6 -44 27 -44 32 0 49 28 31
50 -7 9 -22 14 -32 12 -11 -3 -18 0 -18 9 0 21 30 30 42 13 8 -12 9 -11 5 1
-4 18 -27 23 -45 11z m38 -66 c0 -25 -23 -35 -35 -15 -10 16 2 40 20 40 9 0
15 -9 15 -25z"/>
<path d="M4838 373 c6 -2 18 -2 25 0 6 3 1 5 -13 5 -14 0 -19 -2 -12 -5z"/>
<path d="M2070 25 c0 -20 5 -25 25 -25 20 0 25 5 25 25 0 20 -5 25 -25 25 -20
0 -25 -5 -25 -25z"/>
</g>
</svg>
